<svg xmlns="http://www.w3.org/2000/svg" width="300" height="223.536" viewBox="0 0 300 223.536">
  <g id="Active_Support-rafiki" data-name="Active Support-rafiki" transform="translate(0 -55)">
    <g id="freepik--background-complete--inject-43" transform="translate(0 55)">
      <rect id="Rectangle_32" data-name="Rectangle 32" width="300" height="0.15" transform="translate(0 196.44)" fill="#ebebeb"/>
      <rect id="Rectangle_33" data-name="Rectangle 33" width="19.872" height="0.15" transform="translate(250.068 206.094)" fill="#ebebeb"/>
      <rect id="Rectangle_34" data-name="Rectangle 34" width="5.214" height="0.15" transform="translate(193.518 207.726)" fill="#ebebeb"/>
      <rect id="Rectangle_35" data-name="Rectangle 35" width="11.514" height="0.15" transform="translate(237.954 200.526)" fill="#ebebeb"/>
      <rect id="Rectangle_36" data-name="Rectangle 36" width="25.914" height="0.15" transform="translate(31.476 201.534)" fill="#ebebeb"/>
      <rect id="Rectangle_37" data-name="Rectangle 37" width="3.798" height="0.15" transform="translate(62.736 201.534)" fill="#ebebeb"/>
      <rect id="Rectangle_38" data-name="Rectangle 38" width="56.208" height="0.15" transform="translate(78.882 204.066)" fill="#ebebeb"/>
      <path id="Path_1" data-name="Path 1" d="M157.484,224.68H41.63a3.426,3.426,0,0,1-3.42-3.426V58.4A3.426,3.426,0,0,1,41.63,55H157.484a3.426,3.426,0,0,1,3.426,3.426V221.254A3.426,3.426,0,0,1,157.484,224.68ZM41.63,55.12A3.276,3.276,0,0,0,38.36,58.4V221.254a3.276,3.276,0,0,0,3.27,3.276H157.484a3.282,3.282,0,0,0,3.276-3.276V58.4a3.282,3.282,0,0,0-3.276-3.276Z" transform="translate(-15.284 -55)" fill="#ebebeb"/>
      <path id="Path_2" data-name="Path 2" d="M373.786,224.68H257.926a3.432,3.432,0,0,1-3.426-3.426V58.4a3.432,3.432,0,0,1,3.426-3.4h115.86a3.426,3.426,0,0,1,3.414,3.4V221.254A3.426,3.426,0,0,1,373.786,224.68ZM257.926,55.12A3.282,3.282,0,0,0,254.65,58.4V221.254a3.282,3.282,0,0,0,3.276,3.276h115.86a3.282,3.282,0,0,0,3.276-3.276V58.4a3.282,3.282,0,0,0-3.276-3.276Z" transform="translate(-101.8 -55)" fill="#ebebeb"/>
      <rect id="Rectangle_39" data-name="Rectangle 39" width="139.014" height="92.442" transform="translate(246.498 112.614) rotate(180)" fill="#e6e6e6"/>
      <rect id="Rectangle_40" data-name="Rectangle 40" width="139.014" height="92.442" transform="translate(244.344 112.614) rotate(180)" fill="#f5f5f5"/>
      <rect id="Rectangle_41" data-name="Rectangle 41" width="83.766" height="131.292" transform="translate(240.48 24.504) rotate(90)" fill="#fff"/>
      <rect id="Rectangle_42" data-name="Rectangle 42" width="83.766" height="1.626" transform="translate(110.82 24.51) rotate(90)" fill="#e6e6e6"/>
      <rect id="Rectangle_43" data-name="Rectangle 43" width="135.822" height="5.826" transform="translate(242.748 88.056) rotate(180)" fill="#f5f5f5"/>
      <g id="Group_88" data-name="Group 88" transform="translate(101.016 15.606)" opacity="0.4">
        <rect id="Rectangle_44" data-name="Rectangle 44" width="13.122" height="78.204" fill="#e6e6e6"/>
        <rect id="Rectangle_45" data-name="Rectangle 45" width="6.504" height="71.922" transform="translate(19.632 71.922) rotate(180)" fill="#f5f5f5"/>
        <rect id="Rectangle_46" data-name="Rectangle 46" width="13.122" height="78.204" transform="translate(19.632)" fill="#e6e6e6"/>
        <rect id="Rectangle_47" data-name="Rectangle 47" width="6.504" height="71.922" transform="translate(39.264 71.922) rotate(180)" fill="#f5f5f5"/>
        <rect id="Rectangle_48" data-name="Rectangle 48" width="13.122" height="78.204" transform="translate(39.264)" fill="#e6e6e6"/>
        <rect id="Rectangle_49" data-name="Rectangle 49" width="6.504" height="71.922" transform="translate(58.896 71.922) rotate(180)" fill="#f5f5f5"/>
        <rect id="Rectangle_50" data-name="Rectangle 50" width="13.122" height="78.204" transform="translate(58.896)" fill="#e6e6e6"/>
        <rect id="Rectangle_51" data-name="Rectangle 51" width="6.504" height="71.922" transform="translate(78.528 71.922) rotate(180)" fill="#f5f5f5"/>
        <rect id="Rectangle_52" data-name="Rectangle 52" width="13.122" height="78.204" transform="translate(78.528)" fill="#e6e6e6"/>
        <rect id="Rectangle_53" data-name="Rectangle 53" width="6.504" height="71.922" transform="translate(98.154 71.922) rotate(180)" fill="#f5f5f5"/>
        <rect id="Rectangle_54" data-name="Rectangle 54" width="13.122" height="78.204" transform="translate(98.154)" fill="#e6e6e6"/>
        <rect id="Rectangle_55" data-name="Rectangle 55" width="6.504" height="71.922" transform="translate(117.786 71.922) rotate(180)" fill="#f5f5f5"/>
        <rect id="Rectangle_56" data-name="Rectangle 56" width="13.122" height="78.204" transform="translate(117.786)" fill="#e6e6e6"/>
        <rect id="Rectangle_57" data-name="Rectangle 57" width="6.504" height="71.922" transform="translate(137.418 71.922) rotate(180)" fill="#f5f5f5"/>
        <rect id="Rectangle_58" data-name="Rectangle 58" width="13.122" height="78.204" transform="translate(137.418)" fill="#e6e6e6"/>
      </g>
      <rect id="Rectangle_59" data-name="Rectangle 59" width="30.774" height="63.24" transform="translate(80.448 196.44) rotate(180)" fill="#ebebeb"/>
      <path id="Path_3" data-name="Path 3" d="M88.634,373.812H82.79V360.93H94.766Z" transform="translate(-33.116 -177.372)" fill="#f5f5f5"/>
      <rect id="Rectangle_60" data-name="Rectangle 60" width="30.774" height="63.24" transform="translate(256.032 196.44) rotate(180)" fill="#ebebeb"/>
      <rect id="Rectangle_61" data-name="Rectangle 61" width="180.684" height="55.338" transform="translate(230.358 188.538) rotate(180)" fill="#f5f5f5"/>
      <path id="Path_4" data-name="Path 4" d="M337.884,319.2H284.322a.492.492,0,0,1-.492-.492V283.672a.492.492,0,0,1,.492-.492h9.888a.468.468,0,0,1,.294.1,17.334,17.334,0,0,0,4.83,2.478,20.365,20.365,0,0,0,6.468,1.032h10.6a19.056,19.056,0,0,0,11.334-3.492.462.462,0,0,1,.288-.1h9.894a.492.492,0,0,1,.492.492v35.016a.492.492,0,0,1-.522.492Zm-53.07-.984h52.578V284.182h-9.24a20.058,20.058,0,0,1-11.754,3.6H305.8a21.281,21.281,0,0,1-6.78-1.086,18.356,18.356,0,0,1-4.968-2.52h-9.24Z" transform="translate(-113.532 -146.272)" fill="#e6e6e6"/>
      <path id="Path_5" data-name="Path 5" d="M241.96,319.2H188.392a.492.492,0,0,1-.492-.492V283.672a.492.492,0,0,1,.492-.492h9.354a.468.468,0,0,1,.294.1,17.185,17.185,0,0,0,4.8,2.478,20.366,20.366,0,0,0,6.468,1.032h10.6a19,19,0,0,0,11.286-3.51.492.492,0,0,1,.294-.1H241.96a.486.486,0,0,1,.492.492v35.016a.492.492,0,0,1-.492.51Zm-53.07-.984h52.578V284.182h-9.792a20.034,20.034,0,0,1-11.742,3.6h-10.6a21.282,21.282,0,0,1-6.78-1.086,18.138,18.138,0,0,1-4.974-2.52h-8.7Z" transform="translate(-75.16 -146.272)" fill="#e6e6e6"/>
      <path id="Path_6" data-name="Path 6" d="M146.034,319.2H92.472a.492.492,0,0,1-.492-.492V283.672a.486.486,0,0,1,.492-.492h9.354a.462.462,0,0,1,.288.1,17.333,17.333,0,0,0,4.8,2.478,20.4,20.4,0,0,0,6.474,1.032h10.6a19.05,19.05,0,0,0,11.3-3.51.468.468,0,0,1,.294-.1H146a.492.492,0,0,1,.492.492v35.016a.492.492,0,0,1-.462.51Zm-53.07-.984h52.578V284.182h-9.75a20.052,20.052,0,0,1-11.748,3.6H113.418a21.227,21.227,0,0,1-6.78-1.086,18.131,18.131,0,0,1-4.974-2.52h-8.7Z" transform="translate(-36.792 -146.272)" fill="#e6e6e6"/>
      <path id="Path_7" data-name="Path 7" d="M370.106,373.812h5.844V360.93H363.98Z" transform="translate(-145.592 -177.372)" fill="#f5f5f5"/>
      <path id="Path_8" data-name="Path 8" d="M139.328,213.328h-4.854c.036-3.36,0-11.892-.342-31.434-.6-35.4-1.722-37.584-1.722-37.584l5.754,17.484a47.352,47.352,0,0,1,2.364,12.72C141.164,188.146,138.764,199.03,139.328,213.328Z" transform="translate(-52.964 -90.724)" fill="#e6e6e6"/>
      <path id="Path_9" data-name="Path 9" d="M146.081,151.44c6.474-9.8,19.4-14.91,32.61-19.722,5.184-1.89-9.372,21.552-19.956,32.184-8.22,8.256-16.2,8.07-18.558,16.2C139.721,170.658,140.5,159.882,146.081,151.44Z" transform="translate(-56.027 -85.644)" fill="#e6e6e6"/>
      <path id="Path_10" data-name="Path 10" d="M115.319,129.432c-5.076-11.46-17.9-26.322-32.31-36.792-5.658-4.11,8.3,31.2,18.15,45.636,7.668,11.256,14.82,18.108,15.936,26.136C121.931,154.368,120.389,140.886,115.319,129.432Z" transform="translate(-32.681 -69.924)" fill="#e6e6e6"/>
      <path id="Path_11" data-name="Path 11" d="M130.742,263.768h0a10.746,10.746,0,0,0,10.728-10.133l.954-9.715H119.06l.948,9.714a10.752,10.752,0,0,0,10.734,10.134Z" transform="translate(-47.624 -130.568)" fill="#f0f0f0"/>
      <path id="Path_12" data-name="Path 12" d="M116.036,241.71h26.388l.756-3.45h-27.9Z" transform="translate(-46.112 -128.304)" fill="#f0f0f0"/>
      <path id="Path_13" data-name="Path 13" d="M118.254,251.57h23.784l.684-3.45H117.57Z" transform="translate(-47.028 -132.248)" fill="#f0f0f0"/>
    </g>
    <g id="freepik--Shadow--inject-43" transform="translate(33.666 264.952)">
      <ellipse id="freepik--path--inject-43" cx="116.334" cy="6.792" rx="116.334" ry="6.792" fill="#b2d1f8"/>
    </g>
    <g id="freepik--Table--inject-43" transform="translate(56.826 212.998)">
      <rect id="Rectangle_62" data-name="Rectangle 62" width="186.342" height="21.096" transform="translate(0 0)" fill="#0071ff"/>
      <rect id="Rectangle_63" data-name="Rectangle 63" width="39.972" height="21.096" transform="translate(146.376 0)" opacity="0.3"/>
      <rect id="Rectangle_64" data-name="Rectangle 64" width="20.574" height="37.65" transform="translate(0 21.096)" fill="#0071ff"/>
      <path id="Path_14" data-name="Path 14" d="M94.72,353.49V355.6l14.568,4.4V391.14h6V353.49Z" transform="translate(-94.714 -332.394)" opacity="0.3"/>
      <rect id="Rectangle_65" data-name="Rectangle 65" width="20.574" height="37.65" transform="translate(165.774 21.096)" fill="#0071ff"/>
      <rect id="Rectangle_66" data-name="Rectangle 66" width="20.574" height="37.65" transform="translate(165.774 21.096)" opacity="0.2"/>
      <path id="Path_15" data-name="Path 15" d="M371,353.49V355.6l14.574,4.4V391.14h6V353.49Z" transform="translate(-205.226 -332.394)" opacity="0.3"/>
      <rect id="Rectangle_67" data-name="Rectangle 67" width="20.574" height="37.65" transform="translate(125.802 21.096)" fill="#0071ff"/>
      <path id="Path_16" data-name="Path 16" d="M304.38,353.49V355.6l14.574,4.4V391.14h6V353.49Z" transform="translate(-178.578 -332.394)" opacity="0.3"/>
      <rect id="Rectangle_68" data-name="Rectangle 68" width="20.574" height="37.65" transform="translate(39.972 21.096)" fill="#0071ff"/>
      <rect id="Rectangle_69" data-name="Rectangle 69" width="20.574" height="37.65" transform="translate(39.972 21.096)" opacity="0.2"/>
      <path id="Path_17" data-name="Path 17" d="M161.33,353.49V355.6l14.574,4.4V391.14h6V353.49Z" transform="translate(-121.358 -332.394)" opacity="0.3"/>
    </g>
    <g id="freepik--Character--inject-43" transform="translate(77.842 104.059)">
      <path id="Path_18" data-name="Path 18" d="M284.8,258.1H170.875a2.568,2.568,0,0,1-2.58-2.76l4.692-74.454a3,3,0,0,1,2.934-2.76H289.843a2.568,2.568,0,0,1,2.58,2.76l-4.692,74.454a3,3,0,0,1-2.928,2.76Z" transform="translate(-145.157 -153.311)" fill="#263238"/>
      <path id="Path_19" data-name="Path 19" d="M284.8,258.1H170.875a2.568,2.568,0,0,1-2.58-2.76l4.692-74.454a3,3,0,0,1,2.934-2.76H289.843a2.568,2.568,0,0,1,2.58,2.76l-4.692,74.454a3,3,0,0,1-2.928,2.76Z" transform="translate(-145.157 -153.311)" opacity="0.6"/>
      <path id="Path_20" data-name="Path 20" d="M283.383,258.1H169.461a2.568,2.568,0,0,1-2.586-2.76l4.692-74.454a3,3,0,0,1,2.934-2.76H288.423a2.562,2.562,0,0,1,2.58,2.76l-4.692,74.454a3,3,0,0,1-2.928,2.76Z" transform="translate(-144.589 -153.311)" fill="#263238"/>
      <path id="Path_21" data-name="Path 21" d="M268.386,313H132.828a3.306,3.306,0,0,0-3,1.854.948.948,0,0,0,.87,1.356H270.486a.948.948,0,0,0,.87-1.356A3.294,3.294,0,0,0,268.386,313Z" transform="translate(-129.736 -207.259)" fill="#263238"/>
      <path id="Path_22" data-name="Path 22" d="M345.926,313H326.648a3.288,3.288,0,0,0-2.97,1.854.948.948,0,0,0,.864,1.356h23.484a.948.948,0,0,0,.87-1.356A3.294,3.294,0,0,0,345.926,313Z" transform="translate(-207.276 -207.259)" opacity="0.6"/>
      <path id="Path_23" data-name="Path 23" d="M337.292,316.316h-4.98a.438.438,0,0,1-.432-.438h0a.438.438,0,0,1,.432-.438h4.98a.438.438,0,0,1,.438.438h0A.438.438,0,0,1,337.292,316.316Z" transform="translate(-210.594 -208.235)" fill="#0071ff"/>
      <path id="Path_24" data-name="Path 24" d="M230.562,316.316h-4.974a.438.438,0,0,1-.438-.438h0a.438.438,0,0,1,.438-.438h4.974a.438.438,0,0,1,.438.438h0A.438.438,0,0,1,230.562,316.316Z" transform="translate(-167.902 -208.235)" fill="#fff" opacity="0.7"/>
      <rect id="Rectangle_70" data-name="Rectangle 70" width="3.978" height="0.876" rx="0.438" transform="translate(128.234 107.205)" fill="#0071ff"/>
      <path id="Path_25" data-name="Path 25" d="M171.159,255.576l4.356-69.078a1.158,1.158,0,0,1,1.14-1.068H289.149a.99.99,0,0,1,1,1.068l-4.35,69.078a1.164,1.164,0,0,1-1.146,1.068H172.167a1,1,0,0,1-1.008-1.068Z" transform="translate(-146.304 -156.231)" fill="#fff"/>
      <path id="Path_26" data-name="Path 26" d="M233.738,181.88l-37.47,71.22H168.626a1,1,0,0,1-1.008-1.074l4.356-69.072a1.164,1.164,0,0,1,1.14-1.074Z" transform="translate(-144.888 -154.811)" fill="#0071ff" opacity="0.1"/>
      <path id="Path_27" data-name="Path 27" d="M301.706,181.88l-37.47,71.22H255.5l37.47-71.22Z" transform="translate(-180.042 -154.811)" fill="#0071ff" opacity="0.1"/>
      <path id="Path_28" data-name="Path 28" d="M333.876,182.954l-4.356,69.072a1.158,1.158,0,0,1-1.14,1.074h-42.6l37.47-71.22h9.6a1,1,0,0,1,1.026,1.074Z" transform="translate(-192.154 -154.811)" fill="#0071ff" opacity="0.1"/>
      <path id="Path_29" data-name="Path 29" d="M274.552,181.46a.876.876,0,0,1-.858.81.75.75,0,0,1-.756-.81.87.87,0,0,1,.858-.81.75.75,0,0,1,.756.81Z" transform="translate(-187.016 -154.319)" fill="#fff" opacity="0.4"/>
      <path id="Path_30" data-name="Path 30" d="M234.977,151.769c-3.282,3.756-5.178,15.27-2.748,20.934s-25.764,11.334-2.5,20.538,41.868-1.47,35.136-11,.726-25.41-7.068-29.4C250.751,149.2,241.553,144.239,234.977,151.769Z" transform="translate(-166.028 -141.195)" fill="#263238"/>
      <path id="Path_31" data-name="Path 31" d="M210.484,230.068c-1.23,4.2-2.538,8.4-3.894,12.6s-2.766,8.352-4.26,12.522l-.57,1.572-.288.786-.09.234-.144.354c-.09.228-.228.474-.348.708a6.534,6.534,0,0,1-2.526,2.556,6.84,6.84,0,0,1-3.144.828,11.6,11.6,0,0,1-4.494-.882,25.292,25.292,0,0,1-3.378-1.674A53.741,53.741,0,0,1,176.62,251l2.586-3.048c.87.558,1.8,1.152,2.7,1.71s1.842,1.1,2.754,1.632a54.687,54.687,0,0,0,5.526,2.826,18.74,18.74,0,0,0,2.664.942,4.854,4.854,0,0,0,1.956.228c.168,0,.138-.1,0-.042s-.288.21-.294.192,0,0,0-.036a.078.078,0,0,0,0-.036l.048-.15.228-.774.462-1.56,3.666-12.6q1.872-6.3,3.852-12.6Z" transform="translate(-148.49 -173.131)" fill="#b65b52"/>
      <path id="Path_32" data-name="Path 32" d="M175.972,259.58,169,257l2.766,7.368s4.92.708,6.828-1.878l-1.554-2.082A2.4,2.4,0,0,0,175.972,259.58Z" transform="translate(-145.442 -184.859)" fill="#b55b52"/>
      <path id="Path_33" data-name="Path 33" d="M158.75,259.134l2.652,6.042,6.294-.828-2.772-7.368Z" transform="translate(-141.342 -184.851)" fill="#b55b52"/>
      <path id="Path_34" data-name="Path 34" d="M220.98,213.2c-3.192.81-5.4,13.932-5.4,13.932l8.79,6s8.4-13.236,5.97-16.74C227.76,212.712,225.63,212.016,220.98,213.2Z" transform="translate(-164.074 -167.128)" fill="#0071ff"/>
      <path id="Path_35" data-name="Path 35" d="M220.98,213.2c-3.192.81-5.4,13.932-5.4,13.932l8.79,6s8.4-13.236,5.97-16.74C227.76,212.712,225.63,212.016,220.98,213.2Z" transform="translate(-164.074 -167.128)" fill="#fff" opacity="0.5"/>
      <path id="Path_36" data-name="Path 36" d="M222.98,221.5l6.822,1.578.654,6.678a77.02,77.02,0,0,1-3.822,6.882l-5.334-3.6C221.534,229.948,222.11,223.6,222.98,221.5Z" transform="translate(-166.362 -170.659)" opacity="0.2"/>
      <path id="Path_37" data-name="Path 37" d="M223.965,212.057s-3.69,1.3,3.7,46.692h31.416c-.528-12.786-.54-20.676,5.568-46.914a92.4,92.4,0,0,0-13.338-1.758,99.23,99.23,0,0,0-14.268,0C230.914,210.635,223.965,212.057,223.965,212.057Z" transform="translate(-167.059 -165.986)" fill="#0071ff"/>
      <path id="Path_38" data-name="Path 38" d="M223.965,212.057s-3.69,1.3,3.7,46.692h31.416c-.528-12.786-.54-20.676,5.568-46.914a92.4,92.4,0,0,0-13.338-1.758,99.23,99.23,0,0,0-14.268,0C230.914,210.635,223.965,212.057,223.965,212.057Z" transform="translate(-167.059 -165.986)" fill="#fff" opacity="0.5"/>
      <path id="Path_39" data-name="Path 39" d="M280.015,233.48l4.056,3.456c-.864,4.59-1.446,8.4-1.8,11.814C281.5,245.342,279.565,236.09,280.015,233.48Z" transform="translate(-189.821 -175.451)" opacity="0.2"/>
      <path id="Path_40" data-name="Path 40" d="M258.328,183.47c-.9,4.59-1.8,13,1.416,16.068a12.227,12.227,0,0,1-10.95,6.876c-7.95,0-3.318-6.876-3.318-6.876,5.118-1.2,4.986-5.022,4.1-8.586Z" transform="translate(-175.495 -155.447)" fill="#b55b52"/>
      <path id="Path_41" data-name="Path 41" d="M258.11,207.121c-.756,1.53-3.192,5.028-10,6.276a.756.756,0,0,1-.546-.108,4.55,4.55,0,0,1-1.506-4.944.744.744,0,0,0-1-.888,9.492,9.492,0,0,0-1.5.792.726.726,0,0,0-.246.276c-.5.936-2.514,5.52,3.57,8.346a.912.912,0,0,0,.306.072c3.6.072,9.894-.636,13.872-7.8a.756.756,0,0,0-.066-.828,7.753,7.753,0,0,0-1.842-1.482.732.732,0,0,0-1.05.288Z" transform="translate(-174.882 -164.746)" fill="#fafafa"/>
      <path id="Path_42" data-name="Path 42" d="M265.428,237.2l-8.1-.234a.6.6,0,0,1-.6-.666l.078-1a.7.7,0,0,1,.7-.6l8.1.234a.6.6,0,0,1,.6.672l-.078,1a.7.7,0,0,1-.7.6Z" transform="translate(-180.531 -175.939)" fill="#fafafa"/>
      <path id="Path_43" data-name="Path 43" d="M258.384,188.56l-5.184,4.422a14.555,14.555,0,0,1,.444,2.532c1.95-.282,4.638-2.43,4.848-4.476a6.864,6.864,0,0,0-.108-2.478Z" transform="translate(-179.122 -157.483)" opacity="0.2"/>
      <path id="Path_44" data-name="Path 44" d="M262.753,160.626c-1.446,7.542-1.9,10.764-6.24,14.166-6.534,5.124-15.48,1.692-16.308-6.126-.75-7.038,1.74-18.186,9.6-20.25a10.47,10.47,0,0,1,12.948,12.21Z" transform="translate(-173.873 -141.285)" fill="#b55b52"/>
      <path id="Path_45" data-name="Path 45" d="M270.349,156.518c-.936,4.722-1.158,10.98,3.168,10.98s7.716-7.362,3.984-13.128S270.9,153.734,270.349,156.518Z" transform="translate(-185.759 -142.758)" fill="#263238"/>
      <path id="Path_46" data-name="Path 46" d="M265.5,151.108c0,5.136-6.468,2.6-9.33.384s-3-1.974-8.3-1.98-6.366-.372-7.932-2.9-1.422-4.2,2.106-3.666.564-3.066,3.192-5.064,5.742-1.494,9.336,3.066S265.5,142.21,265.5,151.108Z" transform="translate(-173.434 -136.766)" fill="#263238"/>
      <ellipse id="Ellipse_16" data-name="Ellipse 16" cx="4.38" cy="2.838" rx="4.38" ry="2.838" transform="translate(83.489 28.658) rotate(-73.66)" fill="#fff"/>
      <path id="Path_47" data-name="Path 47" d="M257.208,172.807a10.258,10.258,0,0,1-4.048-.833.222.222,0,0,1-.122-.295.234.234,0,0,1,.3-.12,9.81,9.81,0,0,0,7.638.042,9.546,9.546,0,0,0,5.232-5.25c1.8-5.154,3.636-11.586,1.512-15.6a6.174,6.174,0,0,0-4.14-3.078.226.226,0,1,1,.114-.438,6.63,6.63,0,0,1,4.422,3.3c2.208,4.146.366,10.7-1.488,15.954a10.014,10.014,0,0,1-5.5,5.508,10.38,10.38,0,0,1-3.918.81Z" transform="translate(-179.049 -140.951)" fill="#fff"/>
      <path id="Path_48" data-name="Path 48" d="M277.125,177.644c-.534,1.8-1.758,3.066-2.736,2.784s-1.338-2-.8-3.822,1.758-3.072,2.736-2.784S277.659,175.82,277.125,177.644Z" transform="translate(-187.177 -151.572)" fill="#0071ff" opacity="0.6"/>
      <rect id="Rectangle_71" data-name="Rectangle 71" width="3.918" height="1.662" rx="0.831" transform="translate(71.632 29.432) rotate(10.92)" fill="#fff"/>
      <path id="Path_49" data-name="Path 49" d="M247.362,170.05a16.629,16.629,0,0,1-2.712,3.66,2.682,2.682,0,0,0,2.154.7Z" transform="translate(-175.702 -150.079)" fill="#a02724"/>
      <path id="Path_50" data-name="Path 50" d="M251.339,181.8h.054a5.4,5.4,0,0,0,3.78-1.152.12.12,0,0,0,0-.168.114.114,0,0,0-.162,0,5.2,5.2,0,0,1-3.6,1.1.114.114,0,0,0-.132.1.12.12,0,0,0,.06.12Z" transform="translate(-178.353 -154.237)" fill="#263238"/>
      <path id="Path_51" data-name="Path 51" d="M261.036,163.748a.228.228,0,0,0,.222,0,.24.24,0,0,0,.072-.324,3.522,3.522,0,0,0-2.73-1.7.24.24,0,0,0-.24.234.234.234,0,0,0,.228.234,3.066,3.066,0,0,1,2.346,1.488A.234.234,0,0,0,261.036,163.748Z" transform="translate(-181.186 -146.747)" fill="#263238"/>
      <path id="Path_52" data-name="Path 52" d="M256.1,169.383c-.1.6-.516,1.062-.924,1s-.642-.6-.54-1.248.522-1.062.924-1S256.206,168.765,256.1,169.383Z" transform="translate(-179.686 -149.311)" fill="#263238"/>
      <path id="Path_53" data-name="Path 53" d="M244.438,167.4c-.1.6-.516,1.062-.924,1s-.642-.63-.54-1.248.522-1.068.924-1S244.546,166.779,244.438,167.4Z" transform="translate(-175.022 -148.518)" fill="#263238"/>
      <path id="Path_54" data-name="Path 54" d="M243.876,165.814l-1.416-.684S243.024,166.42,243.876,165.814Z" transform="translate(-174.826 -148.111)" fill="#263238"/>
      <path id="Path_55" data-name="Path 55" d="M255.536,167.8l-1.416-.678S254.684,168.41,255.536,167.8Z" transform="translate(-179.49 -148.907)" fill="#263238"/>
      <path id="Path_56" data-name="Path 56" d="M241.379,160.485a.234.234,0,0,0,.24,0,3,3,0,0,1,2.712-.6.235.235,0,1,0,.156-.444,3.48,3.48,0,0,0-3.15.648.222.222,0,0,0-.042.324A.186.186,0,0,0,241.379,160.485Z" transform="translate(-174.339 -145.783)" fill="#263238"/>
      <path id="Path_57" data-name="Path 57" d="M228.749,299.02a23.782,23.782,0,0,1,1.2-7.65h31.41s2.826,4.56,3.558,7.65Z" transform="translate(-169.341 -198.607)" fill="#0071ff"/>
      <path id="Path_58" data-name="Path 58" d="M261.966,288.138l.246,2.808c.114.222-.144.444-.51.444H229.9c-.282,0-.516-.138-.534-.318l-.288-2.814c0-.192.228-.36.54-.36h31.8A.6.6,0,0,1,261.966,288.138Z" transform="translate(-169.474 -197.217)" fill="#0071ff"/>
      <path id="Path_59" data-name="Path 59" d="M261.966,288.138l.246,2.808c.114.222-.144.444-.51.444H229.9c-.282,0-.516-.138-.534-.318l-.288-2.814c0-.192.228-.36.54-.36h31.8A.6.6,0,0,1,261.966,288.138Z" transform="translate(-169.474 -197.217)" fill="#fafafa" opacity="0.3"/>
      <path id="Path_60" data-name="Path 60" d="M276.263,291.528h.852c.174,0,.3-.084.288-.192l-.4-3.654c0-.108-.162-.192-.33-.192h-.87c-.174,0-.3.084-.288.192l.4,3.654A.352.352,0,0,0,276.263,291.528Z" transform="translate(-188.049 -197.055)" fill="#0071ff"/>
      <path id="Path_61" data-name="Path 61" d="M233.982,291.528h.852c.168,0,.3-.084.288-.192l-.4-3.654c0-.108-.156-.192-.33-.192h-.852c-.168,0-.3.084-.288.192l.4,3.654C233.664,291.444,233.814,291.528,233.982,291.528Z" transform="translate(-171.141 -197.055)" fill="#0071ff"/>
      <path id="Path_62" data-name="Path 62" d="M255.116,291.528h.828c.168,0,.3-.084.288-.192l-.4-3.654c0-.108-.162-.192-.33-.192h-.852c-.168,0-.3.084-.288.192l.4,3.654A.362.362,0,0,0,255.116,291.528Z" transform="translate(-179.585 -197.055)" fill="#0071ff"/>
      <path id="Path_63" data-name="Path 63" d="M291.7,228q2.07,6.72,3.978,13.512l1.914,6.756.954,3.36.24.828.12.414.03.1h0l-.1-.15a2.4,2.4,0,0,0-.552-.564,3,3,0,0,0-1.608-.57,2.694,2.694,0,0,0-1.272.252c-.432.234-.39.288-.354.246a1.994,1.994,0,0,0,.276-.294,10.873,10.873,0,0,0,.78-1.11c.528-.864,1.05-1.836,1.542-2.832,1.02-1.992,1.938-4.1,2.868-6.228s1.8-4.272,2.7-6.438,1.758-4.344,2.646-6.492l3.834,1.14c-1,4.68-2.16,9.276-3.6,13.854-.708,2.3-1.494,4.572-2.4,6.876-.468,1.152-.966,2.3-1.584,3.5a17.792,17.792,0,0,1-1.1,1.872,8.849,8.849,0,0,1-.84,1.068,5.586,5.586,0,0,1-1.74,1.326,4.446,4.446,0,0,1-2.124.444,4.374,4.374,0,0,1-2.4-.882,4.95,4.95,0,0,1-1.134-1.2,6.525,6.525,0,0,1-.51-.93c-.054-.132-.114-.27-.156-.39l-.114-.294-.156-.426-.312-.846c-.408-1.122-.822-2.244-1.2-3.366-.768-2.244-1.536-4.482-2.256-6.732q-2.208-6.744-4.116-13.554Z" transform="translate(-191.422 -173.259)" fill="#b65b52"/>
      <path id="Path_64" data-name="Path 64" d="M286.635,213.065c3.15.954,7.968,13.308,7.968,13.308l-12.21,8.73s-5.49-10.56-4.17-14.628C279.6,216.239,283.047,211.973,286.635,213.065Z" transform="translate(-189.049 -167.216)" fill="#0071ff"/>
      <path id="Path_65" data-name="Path 65" d="M286.635,213.065c3.15.954,7.968,13.308,7.968,13.308l-12.21,8.73s-5.49-10.56-4.17-14.628C279.6,216.239,283.047,211.973,286.635,213.065Z" transform="translate(-189.049 -167.216)" fill="#fff" opacity="0.5"/>
      <path id="Path_66" data-name="Path 66" d="M319.584,227.13l-1.674-7.38,6.96,3.672s.084,4.968-2.724,6.534Z" transform="translate(-205.006 -169.959)" fill="#b55b52"/>
      <path id="Path_67" data-name="Path 67" d="M320.826,209.99l4.44,3.15-.4,6.378-6.96-3.672Z" transform="translate(-205.006 -166.055)" fill="#b55b52"/>
    </g>
    <g id="freepik--Chat--inject-43" transform="translate(60 71.314)">
      <path id="Path_68" data-name="Path 68" d="M109,148.09h48.6a6.708,6.708,0,0,1,6.756,7.2l-1.356,22a7.8,7.8,0,0,1-7.644,7.2h-5.628l2.3,7.554-10.992-7.554h-34.26a6.708,6.708,0,0,1-6.756-7.2l1.344-22a7.8,7.8,0,0,1,7.638-7.2Z" transform="translate(-100 -108.55)" fill="#0071ff"/>
      <path id="Path_69" data-name="Path 69" d="M160.345,165.47h-41.1A1.26,1.26,0,0,1,118,164.1h0a1.464,1.464,0,0,1,1.434-1.356h41.106a1.266,1.266,0,0,1,1.26,1.356h0A1.458,1.458,0,0,1,160.345,165.47Z" transform="translate(-107.196 -114.41)" fill="#fff"/>
      <path id="Path_70" data-name="Path 70" d="M135.654,178.872H118.41a1.266,1.266,0,0,1-1.272-1.356h0a1.464,1.464,0,0,1,1.44-1.356H135.84a1.266,1.266,0,0,1,1.278,1.356h0A1.47,1.47,0,0,1,135.654,178.872Z" transform="translate(-106.854 -119.778)" fill="#fff"/>
      <path id="Path_71" data-name="Path 71" d="M150.1,192.262H117.59a1.266,1.266,0,0,1-1.272-1.356h0a1.458,1.458,0,0,1,1.44-1.356h32.514a1.26,1.26,0,0,1,1.272,1.356h0a1.464,1.464,0,0,1-1.44,1.356Z" transform="translate(-106.526 -125.134)" fill="#fff"/>
      <path id="Path_72" data-name="Path 72" d="M163.728,178.872h-6.8a1.266,1.266,0,0,1-1.272-1.356h0a1.47,1.47,0,0,1,1.44-1.356h6.792a1.26,1.26,0,0,1,1.272,1.356h0A1.464,1.464,0,0,1,163.728,178.872Z" transform="translate(-122.262 -119.778)" fill="#fff"/>
      <path id="Path_73" data-name="Path 73" d="M205.465,82.19h-26.5a6.054,6.054,0,0,0-5.946,5.6l-1.032,17.124a5.226,5.226,0,0,0,5.262,5.6h4.338l-2.508,5.88,9.276-5.88h15.372a6.054,6.054,0,0,0,5.946-5.6l1.05-17.124a5.226,5.226,0,0,0-5.262-5.6Z" transform="translate(-128.791 -82.19)" fill="#0071ff"/>
      <g id="Group_89" data-name="Group 89" transform="translate(43.187)" opacity="0.5">
        <path id="Path_74" data-name="Path 74" d="M205.465,82.19h-26.5a6.054,6.054,0,0,0-5.946,5.6l-1.032,17.124a5.226,5.226,0,0,0,5.262,5.6h4.338l-2.508,5.88,9.276-5.88h15.372a6.054,6.054,0,0,0,5.946-5.6l1.05-17.124a5.226,5.226,0,0,0-5.262-5.6Z" transform="translate(-171.978 -82.19)" fill="#fafafa"/>
      </g>
      <path id="Path_75" data-name="Path 75" d="M201.829,102.412a1.734,1.734,0,0,1-1.68,1.326h-1.566c0-.444.036-.714.042-.81a5.628,5.628,0,0,1,.648-2.478,8.286,8.286,0,0,1,2.124-2.184,16.313,16.313,0,0,0,1.884-1.6,2.256,2.256,0,0,0,.528-1.308,2.088,2.088,0,0,0-.69-1.71,2.964,2.964,0,0,0-2.1-.708,3.408,3.408,0,0,0-2.22.744,3.534,3.534,0,0,0-.9,1.122,1.8,1.8,0,0,1-1.74.972h0a1.524,1.524,0,0,1-1.1-2.322,6.1,6.1,0,0,1,1.374-1.6,6.906,6.906,0,0,1,4.6-1.518,6.446,6.446,0,0,1,4.584,1.536,4.386,4.386,0,0,1,1.518,3.6,4.2,4.2,0,0,1-.768,2.136,15.42,15.42,0,0,1-2.9,2.748,5.61,5.61,0,0,0-1.428,1.446,2.287,2.287,0,0,0-.21.6ZM198.4,106.72v-.192a1.734,1.734,0,0,1,1.71-1.608h.216a1.5,1.5,0,0,1,1.518,1.608v.192a1.74,1.74,0,0,1-1.71,1.614h-.192a1.5,1.5,0,0,1-1.542-1.614Z" transform="translate(-137.929 -85.45)" fill="#fff"/>
    </g>
  </g>
</svg>
